<?xml version="1.0" encoding="utf-8"?>
<!-- Generator: Adobe Illustrator 19.2.1, SVG Export Plug-In . SVG Version: 6.00 Build 0)  -->
<svg version="1.1"
	 id="svg2408" xmlns:cc="http://creativecommons.org/ns#" xmlns:dc="http://purl.org/dc/elements/1.1/" xmlns:inkscape="http://www.inkscape.org/namespaces/inkscape" xmlns:rdf="http://www.w3.org/1999/02/22-rdf-syntax-ns#" xmlns:svg="http://www.w3.org/2000/svg"
	 xmlns="http://www.w3.org/2000/svg" xmlns:xlink="http://www.w3.org/1999/xlink" x="0px" y="0px" viewBox="0 0 96 96"
	 style="enable-background:new 0 0 96 96;" xml:space="preserve">
<style type="text/css">
	.st0{display:none;}
	.st1{display:inline;}
	.st2{opacity:0.9;clip-path:url(#SVGID_2_);filter:url(#filter3174);enable-background:new    ;}
	.st3{fill:url(#SVGID_3_);}
	.st4{opacity:7.999998e-002;fill:url(#path3786_1_);enable-background:new    ;}
	.st5{opacity:0.1;fill:url(#path3778_1_);enable-background:new    ;}
	.st6{opacity:0.2;fill:url(#path3770_1_);enable-background:new    ;}
	.st7{opacity:0.3;fill:url(#rect3723_1_);enable-background:new    ;}
	.st8{opacity:0.45;fill:url(#rect3716_1_);enable-background:new    ;}
	.st9{display:inline;opacity:0.8;enable-background:new    ;}
	.st10{display:inline;opacity:7.999998e-002;enable-background:new    ;}
	.st11{display:inline;fill:url(#rect3629_1_);}
	.st12{display:inline;fill:url(#rect3728_1_);}
	.st13{display:inline;opacity:0.6;fill:url(#path3615_1_);enable-background:new    ;}
	.st14{display:inline;fill:url(#rect2841_1_);}
	.st15{display:inline;fill:#FF0000;}
	.st16{clip-path:url(#SVGID_5_);}
	.st17{display:inline;opacity:0.16;enable-background:new    ;}
	.st18{display:inline;opacity:0.36;enable-background:new    ;}
	.st19{opacity:0.6;enable-background:new    ;}
	.st20{opacity:1.000001e-002;fill:url(#rect3728-4_1_);enable-background:new    ;}
	.st21{opacity:0.15;fill:url(#path3615-6_1_);enable-background:new    ;}
	.st22{opacity:0.1;clip-path:url(#SVGID_7_);filter:url(#filter3794);enable-background:new    ;}
	.st23{fill:url(#SVGID_8_);}
	.st24{fill:none;stroke:#FFFFFF;stroke-width:0.5;stroke-linecap:round;}
	.st25{opacity:0.1;enable-background:new    ;}
	.st26{opacity:0.15;enable-background:new    ;}
	.st27{opacity:0.3;enable-background:new    ;}
	.st28{fill:url(#rect3897_1_);}
	.st29{fill:url(#rect3911_1_);}
	.st30{fill:url(#path3648_1_);}
	.st31{opacity:0.75;fill:#FFFFFF;enable-background:new    ;}
</style>
<filter  color-interpolation-filters="sRGB" height="1.3839999" id="filter3794" width="1.3839999" x="-0.192" y="-0.192">
	<feGaussianBlur  id="feGaussianBlur3796" stdDeviation="5.28"></feGaussianBlur>
</filter>
<filter  color-interpolation-filters="sRGB" id="filter3174">
	<feGaussianBlur  id="feGaussianBlur3176" stdDeviation="1.71"></feGaussianBlur>
</filter>
<g id="layer2" class="st0">
	<g class="st1">
		<defs>
			<path id="SVGID_1_" d="M0,0v96h96V0H0z M12,6h72c3.3,0,6,2.7,6,6v72c0,3.3-2.7,6-6,6H12c-3.3,0-6-2.7-6-6V12C6,8.7,8.7,6,12,6z"
				/>
		</defs>
		<clipPath id="SVGID_2_">
			<use xlink:href="#SVGID_1_"  style="overflow:visible;"/>
		</clipPath>
		<g id="rect3745" class="st2">
			
				<linearGradient id="SVGID_3_" gradientUnits="userSpaceOnUse" x1="46.2215" y1="3.4252" x2="46.2215" y2="88.9237" gradientTransform="matrix(1.0059 0 0 -0.9942 1.5074 95.4052)">
				<stop  offset="0" style="stop-color:#000000"/>
				<stop  offset="1" style="stop-color:#000000;stop-opacity:0.5882"/>
			</linearGradient>
			<path class="st3" d="M11,7h74c3.3,0,6,2.7,6,6v73c0,3.3-2.7,6-6,6H11c-3.3,0-6-2.7-6-6V13C5,9.7,7.7,7,11,7z"/>
		</g>
	</g>
</g>
<g id="layer3">
	
		<linearGradient id="path3786_1_" gradientUnits="userSpaceOnUse" x1="42.0232" y1="781.7859" x2="42.0232" y2="697.679" gradientTransform="matrix(1.0238 0 0 1.0119 4.9762 -699.2262)">
		<stop  offset="0" style="stop-color:#000000"/>
		<stop  offset="1" style="stop-color:#000000;stop-opacity:0.5882"/>
	</linearGradient>
	<path id="path3786" inkscape:connector-curvature="0" class="st4" d="M12,4C6.5,4,2,8.5,2,14v71c0,5.5,4.5,10,10,10h72
		c5.5,0,10-4.5,10-10V14c0-5.5-4.5-10-10-10H12z M12,6h72c3.3,0,6,2.7,6,6v72c0,3.3-2.7,6-6,6H12c-3.3,0-6-2.7-6-6V12
		C6,8.7,8.7,6,12,6z"/>
	
		<linearGradient id="path3778_1_" gradientUnits="userSpaceOnUse" x1="42.0232" y1="781.7859" x2="42.0232" y2="697.679" gradientTransform="matrix(1.0238 0 0 1.0119 4.9762 -699.2262)">
		<stop  offset="0" style="stop-color:#000000"/>
		<stop  offset="1" style="stop-color:#000000;stop-opacity:0.5882"/>
	</linearGradient>
	<path id="path3778" inkscape:connector-curvature="0" class="st5" d="M12,5C7,5,3,9,3,14v71c0,5,4.1,9,9,9h72c5,0,9-4.1,9-9V14
		c0-5-4.1-9-9-9H12z M12,6h72c3.3,0,6,2.7,6,6v72c0,3.3-2.7,6-6,6H12c-3.3,0-6-2.7-6-6V12C6,8.7,8.7,6,12,6z"/>
	
		<linearGradient id="path3770_1_" gradientUnits="userSpaceOnUse" x1="42.0232" y1="781.7859" x2="42.0232" y2="697.679" gradientTransform="matrix(1.0238 0 0 1.0119 4.9762 -699.2262)">
		<stop  offset="0" style="stop-color:#000000"/>
		<stop  offset="1" style="stop-color:#000000;stop-opacity:0.5882"/>
	</linearGradient>
	<path id="path3770" inkscape:connector-curvature="0" class="st6" d="M11.2,6C7.2,6.4,4,9.9,4,14v71c0,4.4,3.6,8,8,8h72
		c4.4,0,8-3.6,8-8V14c0-4.2-3.3-7.6-7.4-8c3,0.3,5.4,2.9,5.4,6v72c0,3.3-2.7,6-6,6H12c-3.3,0-6-2.7-6-6V12c0-3.1,2.3-5.7,5.4-6
		C11.3,6,11.2,6,11.2,6z"/>
	
		<linearGradient id="rect3723_1_" gradientUnits="userSpaceOnUse" x1="42.0232" y1="781.7859" x2="42.0232" y2="697.679" gradientTransform="matrix(1.0238 0 0 1.0119 4.9762 -699.2262)">
		<stop  offset="0" style="stop-color:#000000"/>
		<stop  offset="1" style="stop-color:#000000;stop-opacity:0.5882"/>
	</linearGradient>
	<path id="rect3723" inkscape:connector-curvature="0" class="st7" d="M6.4,9.8C5.5,10.9,5,12.4,5,14v71c0,3.9,3.1,7,7,7h72
		c3.9,0,7-3.1,7-7V14c0-1.6-0.5-3.1-1.4-4.3c0.3,0.7,0.4,1.5,0.4,2.3v72c0,3.3-2.7,6-6,6H12c-3.3,0-6-2.7-6-6V12
		C6,11.2,6.2,10.4,6.4,9.8z"/>
	
		<linearGradient id="rect3716_1_" gradientUnits="userSpaceOnUse" x1="48" y1="785.8683" x2="48" y2="701.7614" gradientTransform="matrix(1 0 0 1 0 -695)">
		<stop  offset="0" style="stop-color:#000000"/>
		<stop  offset="1" style="stop-color:#000000;stop-opacity:0.5882"/>
	</linearGradient>
	<path id="rect3716" inkscape:connector-curvature="0" class="st8" d="M6,84v1c0,3.3,2.7,6,6,6h72c3.3,0,6-2.7,6-6v-1
		c0,3.3-2.7,6-6,6H12C8.7,90,6,87.3,6,84z"/>
</g>
<g id="layer1" class="st0">
	<path id="rect2419" class="st9" d="M12,6h72c3.3,0,6,2.7,6,6v72c0,3.3-2.7,6-6,6H12c-3.3,0-6-2.7-6-6V12C6,8.7,8.7,6,12,6z"/>
	<path id="rect3726" inkscape:connector-curvature="0" class="st10" d="M14,10c-2.2,0-4,1.8-4,4v68c0,2.2,1.8,4,4,4h68
		c2.2,0,4-1.8,4-4V14c0-2.2-1.8-4-4-4H14z M14,13.1h68c0.6,0,0.9,0.4,0.9,0.9v68c0,0.6-0.4,0.9-0.9,0.9H14c-0.6,0-0.9-0.4-0.9-0.9
		V14C13.1,13.4,13.4,13.1,14,13.1z"/>
	
		<linearGradient id="rect3629_1_" gradientUnits="userSpaceOnUse" x1="48" y1="92" x2="48" y2="8" gradientTransform="matrix(1 0 0 -1 0 98)">
		<stop  offset="0" style="stop-color:#F0F0F0"/>
		<stop  offset="1" style="stop-color:#AAAAAA"/>
	</linearGradient>
	<path id="rect3629" inkscape:connector-curvature="0" class="st11" d="M12,6c-3.3,0-6,2.7-6,6v72c0,3.3,2.7,6,6,6h72
		c3.3,0,6-2.7,6-6V12c0-3.3-2.7-6-6-6H12z M14,10h68c2.2,0,4,1.8,4,4v68c0,2.2-1.8,4-4,4H14c-2.2,0-4-1.8-4-4V14
		C10,11.8,11.8,10,14,10z"/>
	
		<linearGradient id="rect3728_1_" gradientUnits="userSpaceOnUse" x1="48" y1="92" x2="48" y2="34.1069" gradientTransform="matrix(1 0 0 -1 0 98)">
		<stop  offset="0" style="stop-color:#FFFFFF"/>
		<stop  offset="1" style="stop-color:#FFFFFF;stop-opacity:0"/>
	</linearGradient>
	<path id="rect3728" inkscape:connector-curvature="0" class="st12" d="M12,6c-3.3,0-6,2.7-6,6v2v68v2c0,0.3,0,0.7,0.1,1
		c0,0.3,0.1,0.6,0.2,0.9c0,0,0,0.1,0,0.1c0.1,0.3,0.2,0.5,0.4,0.8C6.8,87,7,87.3,7.2,87.5s0.4,0.5,0.6,0.7c0.4,0.4,0.9,0.8,1.5,1.1
		c0.3,0.1,0.6,0.2,0.9,0.3c-0.3-0.1-0.5-0.2-0.7-0.4c0,0,0,0,0,0c0,0-0.1,0-0.1-0.1C9.2,89.1,9.1,89.1,9,89
		c-0.1-0.1-0.2-0.2-0.3-0.3c-0.2-0.2-0.3-0.3-0.5-0.5c-0.1-0.1-0.2-0.3-0.3-0.4c0,0,0-0.1-0.1-0.1c-0.1-0.1-0.1-0.2-0.2-0.3
		c-0.1-0.2-0.2-0.4-0.3-0.6c0,0,0,0,0-0.1c0-0.1,0-0.2-0.1-0.3c0-0.1-0.1-0.2-0.1-0.3C7.1,85.7,7,85.4,7,85v-2V15v-2
		c0-2.8,2.2-5,5-5h2h68h2c2.8,0,5,2.2,5,5v2v68v2c0,0.4-0.1,0.7-0.1,1.1c0,0.2-0.1,0.4-0.2,0.6c0,0,0,0,0,0.1
		c-0.1,0.2-0.1,0.4-0.2,0.5c0,0.1-0.1,0.2-0.1,0.3c-0.1,0.1-0.1,0.2-0.2,0.3c-0.1,0.1-0.2,0.3-0.3,0.4c-0.1,0.2-0.3,0.3-0.5,0.5
		c0,0,0,0,0,0c-0.1,0.1-0.3,0.2-0.4,0.3c-0.1,0.1-0.2,0.2-0.3,0.2c0,0,0,0,0,0c-0.2,0.1-0.5,0.3-0.7,0.4c0.3-0.1,0.6-0.2,0.9-0.3
		c0.6-0.3,1.1-0.7,1.5-1.1c0.2-0.2,0.4-0.4,0.6-0.7s0.4-0.5,0.5-0.8c0.1-0.3,0.3-0.5,0.4-0.8c0,0,0-0.1,0-0.1
		c0.1-0.3,0.1-0.6,0.2-0.9c0.1-0.3,0.1-0.6,0.1-1v-2V14v-2c0-3.3-2.7-6-6-6H12z"/>
	
		<radialGradient id="path3615_1_" cx="13.0661" cy="6.4023" r="42" gradientTransform="matrix(1.1573 0 0 -0.9959 32.8784 96.3761)" gradientUnits="userSpaceOnUse">
		<stop  offset="0" style="stop-color:#FFFFFF"/>
		<stop  offset="1" style="stop-color:#FFFFFF;stop-opacity:0"/>
	</radialGradient>
	<path id="path3615" inkscape:connector-curvature="0" class="st13" d="M12,90c-3.3,0-6-2.7-6-6v-2V14v-2c0-0.3,0-0.7,0.1-1
		c0-0.3,0.1-0.6,0.2-0.9c0,0,0-0.1,0-0.1c0.1-0.3,0.2-0.5,0.4-0.8C6.8,9,7,8.7,7.2,8.5S7.6,8,7.8,7.8C8.2,7.4,8.7,7,9.3,6.7
		c0.3-0.1,0.6-0.2,0.9-0.3C9.9,6.4,9.7,6.6,9.4,6.7c0,0,0,0,0,0c0,0-0.1,0-0.1,0.1C9.2,6.9,9.1,6.9,9,7C8.9,7.1,8.8,7.2,8.7,7.3
		C8.5,7.4,8.3,7.6,8.2,7.8C8,7.9,7.9,8.1,7.8,8.2c0,0,0,0.1-0.1,0.1C7.7,8.4,7.7,8.5,7.6,8.7C7.5,8.9,7.4,9.1,7.3,9.3c0,0,0,0,0,0.1
		c0,0.1,0,0.2-0.1,0.3c0,0.1-0.1,0.2-0.1,0.3C7.1,10.3,7,10.6,7,11v2v68v2c0,2.8,2.2,5,5,5h2h68h2c2.8,0,5-2.2,5-5v-2V13v-2
		c0-0.4-0.1-0.7-0.1-1.1c0-0.2-0.1-0.4-0.2-0.6c0,0,0,0,0-0.1c-0.1-0.2-0.1-0.4-0.2-0.5c0-0.1-0.1-0.2-0.1-0.3
		c-0.1-0.1-0.1-0.2-0.2-0.3c-0.1-0.1-0.2-0.3-0.3-0.4c-0.1-0.2-0.3-0.3-0.5-0.5c0,0,0,0,0,0c-0.1-0.1-0.3-0.2-0.4-0.3
		c-0.1-0.1-0.2-0.2-0.3-0.2c0,0,0,0,0,0c-0.2-0.1-0.5-0.3-0.7-0.4c0.3,0.1,0.6,0.2,0.9,0.3c0.6,0.3,1.1,0.7,1.5,1.1
		c0.2,0.2,0.4,0.4,0.6,0.7s0.4,0.5,0.5,0.8c0.1,0.3,0.3,0.5,0.4,0.8c0,0,0,0.1,0,0.1c0.1,0.3,0.1,0.6,0.2,0.9c0.1,0.3,0.1,0.6,0.1,1
		v2v68v2c0,3.3-2.7,6-6,6H12z"/>
	
		<linearGradient id="rect2841_1_" gradientUnits="userSpaceOnUse" x1="48" y1="8" x2="48" y2="92" gradientTransform="matrix(1 0 0 -1 0 198)">
		<stop  offset="0" style="stop-color:#2276C5"/>
		<stop  offset="1" style="stop-color:#68BAF4"/>
	</linearGradient>
	<path id="rect2841" class="st14" d="M12,106h72c3.3,0,6,2.7,6,6v72c0,3.3-2.7,6-6,6H12c-3.3,0-6-2.7-6-6v-72
		C6,108.7,8.7,106,12,106z"/>
	<path id="rect3634" class="st15" d="M14,110h68c2.2,0,4,1.8,4,4v68c0,2.2-1.8,4-4,4H14c-2.2,0-4-1.8-4-4v-68
		C10,111.8,11.8,110,14,110z"/>
	<g class="st1">
		<defs>
			<path id="SVGID_4_" d="M-96,10h68c2.2,0,4,1.8,4,4v68c0,2.2-1.8,4-4,4h-68c-2.2,0-4-1.8-4-4V14C-100,11.8-98.2,10-96,10z"/>
		</defs>
		<clipPath id="SVGID_5_">
			<use xlink:href="#SVGID_4_"  style="overflow:visible;"/>
		</clipPath>
		<path id="rect3647" inkscape:connector-curvature="0" class="st16" d="M-96,9c-2.8,0-5,2.2-5,5v68c0,2.8,2.2,5,5,5h68
			c2.8,0,5-2.2,5-5V14c0-2.8-2.2-5-5-5H-96z M-96,11h68c1.7,0,3,1.3,3,3v68c0,1.7-1.3,3-3,3h-68c-1.7,0-3-1.3-3-3V14
			C-99,12.3-97.7,11-96,11z"/>
	</g>
	<path id="path3709" inkscape:connector-curvature="0" class="st17" d="M14.1,10c-2.2,0-4,1.8-4,4v68c0,2.2,1.8,4,4,4h68
		c2.2,0,4-1.8,4-4V14c0-2.2-1.8-4-4-4C82.1,10,14.1,10,14.1,10z M14.1,12h68c1.1,0,2,0.9,2,2v68c0,1.1-0.9,2-2,2h-68
		c-1.1,0-2-0.9-2-2V14C12.1,12.9,12.9,12,14.1,12z"/>
	<path id="path3707" inkscape:connector-curvature="0" class="st18" d="M14,10c-2.2,0-4,1.8-4,4v68c0,2.2,1.8,4,4,4h68
		c2.2,0,4-1.8,4-4V14c0-2.2-1.8-4-4-4H14z M14,11h68c1.7,0,3,1.3,3,3v68c0,1.7-1.3,3-3,3H14c-1.7,0-3-1.3-3-3V14
		C11,12.3,12.3,11,14,11z"/>
</g>
<g id="layer4">
	<path id="rect2419-9" class="st19" d="M12,6h72c3.3,0,6,2.7,6,6v72c0,3.3-2.7,6-6,6H12c-3.3,0-6-2.7-6-6V12C6,8.7,8.7,6,12,6z"/>
	
		<linearGradient id="rect3728-4_1_" gradientUnits="userSpaceOnUse" x1="48" y1="92" x2="48" y2="34.1069" gradientTransform="matrix(1 0 0 -1 0 98)">
		<stop  offset="0" style="stop-color:#FFFFFF"/>
		<stop  offset="1" style="stop-color:#FFFFFF;stop-opacity:0"/>
	</linearGradient>
	<path id="rect3728-4" inkscape:connector-curvature="0" class="st20" d="M12,6c-3.3,0-6,2.7-6,6v2v68v2c0,0.3,0,0.7,0.1,1
		c0,0.3,0.1,0.6,0.2,0.9c0,0,0,0.1,0,0.1c0.1,0.3,0.2,0.5,0.4,0.8C6.8,87,7,87.3,7.2,87.5s0.4,0.5,0.6,0.7c0.4,0.4,0.9,0.8,1.5,1.1
		c0.3,0.1,0.6,0.2,0.9,0.3c-0.3-0.1-0.5-0.2-0.7-0.4c0,0,0,0,0,0c0,0-0.1,0-0.1-0.1C9.2,89.1,9.1,89.1,9,89
		c-0.1-0.1-0.2-0.2-0.3-0.3c-0.2-0.2-0.3-0.3-0.5-0.5c-0.1-0.1-0.2-0.3-0.3-0.4c0,0,0-0.1-0.1-0.1c-0.1-0.1-0.1-0.2-0.2-0.3
		c-0.1-0.2-0.2-0.4-0.3-0.6c0,0,0,0,0-0.1c0-0.1,0-0.2-0.1-0.3c0-0.1-0.1-0.2-0.1-0.3C7.1,85.7,7,85.4,7,85v-2V15v-2
		c0-2.8,2.2-5,5-5h2h68h2c2.8,0,5,2.2,5,5v2v68v2c0,0.4-0.1,0.7-0.1,1.1c0,0.2-0.1,0.4-0.2,0.6c0,0,0,0,0,0.1
		c-0.1,0.2-0.1,0.4-0.2,0.5c0,0.1-0.1,0.2-0.1,0.3c-0.1,0.1-0.1,0.2-0.2,0.3c-0.1,0.1-0.2,0.3-0.3,0.4c-0.1,0.2-0.3,0.3-0.5,0.5
		c0,0,0,0,0,0c-0.1,0.1-0.3,0.2-0.4,0.3c-0.1,0.1-0.2,0.2-0.3,0.2c0,0,0,0,0,0c-0.2,0.1-0.5,0.3-0.7,0.4c0.3-0.1,0.6-0.2,0.9-0.3
		c0.6-0.3,1.1-0.7,1.5-1.1c0.2-0.2,0.4-0.4,0.6-0.7s0.4-0.5,0.5-0.8c0.1-0.3,0.3-0.5,0.4-0.8c0,0,0-0.1,0-0.1
		c0.1-0.3,0.1-0.6,0.2-0.9c0.1-0.3,0.1-0.6,0.1-1v-2V14v-2c0-3.3-2.7-6-6-6H12z"/>
	
		<radialGradient id="path3615-6_1_" cx="13.0661" cy="6.4023" r="42" gradientTransform="matrix(1.1573 0 0 -0.9959 32.8784 96.3761)" gradientUnits="userSpaceOnUse">
		<stop  offset="0" style="stop-color:#FFFFFF"/>
		<stop  offset="1" style="stop-color:#FFFFFF;stop-opacity:0"/>
	</radialGradient>
	<path id="path3615-6" inkscape:connector-curvature="0" class="st21" d="M12,90c-3.3,0-6-2.7-6-6v-2V14v-2c0-0.3,0-0.7,0.1-1
		c0-0.3,0.1-0.6,0.2-0.9c0,0,0-0.1,0-0.1c0.1-0.3,0.2-0.5,0.4-0.8C6.8,9,7,8.7,7.2,8.5S7.6,8,7.8,7.8C8.2,7.4,8.7,7,9.3,6.7
		c0.3-0.1,0.6-0.2,0.9-0.3C9.9,6.4,9.7,6.6,9.4,6.7c0,0,0,0,0,0c0,0-0.1,0-0.1,0.1C9.2,6.9,9.1,6.9,9,7C8.9,7.1,8.8,7.2,8.7,7.3
		C8.5,7.4,8.3,7.6,8.2,7.8C8,7.9,7.9,8.1,7.8,8.2c0,0,0,0.1-0.1,0.1C7.7,8.4,7.7,8.5,7.6,8.7C7.5,8.9,7.4,9.1,7.3,9.3c0,0,0,0,0,0.1
		c0,0.1,0,0.2-0.1,0.3c0,0.1-0.1,0.2-0.1,0.3C7.1,10.3,7,10.6,7,11v2v68v2c0,2.8,2.2,5,5,5h2h68h2c2.8,0,5-2.2,5-5v-2V13v-2
		c0-0.4-0.1-0.7-0.1-1.1c0-0.2-0.1-0.4-0.2-0.6c0,0,0,0,0-0.1c-0.1-0.2-0.1-0.4-0.2-0.5c0-0.1-0.1-0.2-0.1-0.3
		c-0.1-0.1-0.1-0.2-0.2-0.3c-0.1-0.1-0.2-0.3-0.3-0.4c-0.1-0.2-0.3-0.3-0.5-0.5c0,0,0,0,0,0c-0.1-0.1-0.3-0.2-0.4-0.3
		c-0.1-0.1-0.2-0.2-0.3-0.2c0,0,0,0,0,0c-0.2-0.1-0.5-0.3-0.7-0.4c0.3,0.1,0.6,0.2,0.9,0.3c0.6,0.3,1.1,0.7,1.5,1.1
		c0.2,0.2,0.4,0.4,0.6,0.7s0.4,0.5,0.5,0.8c0.1,0.3,0.3,0.5,0.4,0.8c0,0,0,0.1,0,0.1c0.1,0.3,0.1,0.6,0.2,0.9c0.1,0.3,0.1,0.6,0.1,1
		v2v68v2c0,3.3-2.7,6-6,6H12z"/>
</g>
<g id="layer5" class="st0">
	<g class="st1">
		<defs>
			<path id="SVGID_6_" d="M12,6h72c3.3,0,6,2.7,6,6v72c0,3.3-2.7,6-6,6H12c-3.3,0-6-2.7-6-6V12C6,8.7,8.7,6,12,6z"/>
		</defs>
		<clipPath id="SVGID_7_">
			<use xlink:href="#SVGID_6_"  style="overflow:visible;"/>
		</clipPath>
		<g id="rect3171" class="st22">
			
				<linearGradient id="SVGID_8_" gradientUnits="userSpaceOnUse" x1="48" y1="77.7792" x2="48" y2="-40.6612" gradientTransform="matrix(1 0 0 -1 0 98)">
				<stop  offset="0" style="stop-color:#FFFFFF"/>
				<stop  offset="1" style="stop-color:#FFFFFF;stop-opacity:0"/>
			</linearGradient>
			<path class="st23" d="M27,15h42c6.6,0,12,5.4,12,12v42c0,6.6-5.4,12-12,12H27c-6.6,0-12-5.4-12-12V27C15,20.4,20.4,15,27,15z"/>
			<path class="st24" d="M27,15h42c6.6,0,12,5.4,12,12v42c0,6.6-5.4,12-12,12H27c-6.6,0-12-5.4-12-12V27C15,20.4,20.4,15,27,15z"/>
		</g>
	</g>
</g>
<g id="layer6">
	<path id="path3914" inkscape:connector-curvature="0" class="st25" d="M11,43c2.4,0,4.9,0,7.3,0c-3.7,1.6-1.7,7.1-0.4,8.1
		c-2.3,0-4.6,0-6.9,0C11,48.3,11,45.7,11,43z M77.7,43c2.4,0,4.9,0,7.3,0c0,2.7,0,5.4,0,8.1c-2.4,0-4.9,0-7.3,0
		C80.7,49.2,80.7,44.8,77.7,43z M35.8,67c-1.7,0.1-2.4,2.6-0.9,3.6c4.1,4,8,8.1,12.1,12.1c1.2,0.7,2.5-0.1,3.2-1.1
		c3.8-3.9,7.7-7.6,11.5-11.5c0.9-1.4-0.5-3.4-2.1-3C51.6,67,43.7,67,35.8,67z"/>
	<path id="path3910" class="st26" d="M26.4,42.9c-4.1,0-7.5,1.9-7.5,4.1s3.4,4.1,7.5,4.1h43.8c4.1,0,7.5-1.9,7.5-4.1
		s-3.4-4.1-7.5-4.1H26.4z M35.9,67.9c-0.6,0.1-1.1,0.6-1,1.3c0,0.2,0.1,0.5,0.3,0.6l12,12c0.4,0.4,1.1,0.4,1.6,0l12-12
		c0.4-0.4,0.4-1.2,0-1.6c-0.2-0.2-0.5-0.3-0.8-0.3H36C36,67.9,35.9,67.9,35.9,67.9z"/>
	<path id="path3903" inkscape:connector-curvature="0" class="st27" d="M24.7,44c-3.3,0-5.9,1.3-5.9,3s2.6,3,5.9,3h47.5
		c3.3,0,5.9-1.3,5.9-3s-2.6-3-5.9-3H24.7z M36,69l12,12l12-12H36z"/>
	
		<linearGradient id="rect3897_1_" gradientUnits="userSpaceOnUse" x1="194" y1="180" x2="210" y2="180" gradientTransform="matrix(0 1 -1 0 292 -194)">
		<stop  offset="0" style="stop-color:#F0F0F0"/>
		<stop  offset="1" style="stop-color:#AAAAAA"/>
	</linearGradient>
	<rect id="rect3897" x="104" class="st28" width="16" height="16"/>
	<text transform="matrix(1 0 0 1 104 48)" style="font-family:'ArialMT'; font-size:4px;">Shadow opacity : 30, 15, 10, (8)</text>
	
		<linearGradient id="rect3911_1_" gradientUnits="userSpaceOnUse" x1="-500" y1="180" x2="-484" y2="180" gradientTransform="matrix(0 -1 -1 0 292 -460)">
		<stop  offset="0" style="stop-color:#C80000"/>
		<stop  offset="1" style="stop-color:#F3604D"/>
	</linearGradient>
	<rect id="rect3911" x="104" y="24" class="st29" width="16" height="16"/>
	<text transform="matrix(1 0 0 1 124 32)" style="font-family:'ArialMT'; font-size:4px;">Bevel opacity : 30 / 10</text>
	<text transform="matrix(1 0 0 1 124 8)" style="font-family:'ArialMT'; font-size:4px;">Bevel opacity : 75 / 15</text>
	
		<linearGradient id="path3648_1_" gradientUnits="userSpaceOnUse" x1="-159.2214" y1="324.2029" x2="-159.2214" y2="311.3315" gradientTransform="matrix(3 0 0 -3 526 1014)">
		<stop  offset="0" style="stop-color:#F0F0F0"/>
		<stop  offset="1" style="stop-color:#AAAAAA"/>
	</linearGradient>
	<path id="path3648" inkscape:connector-curvature="0" class="st30" d="M24.4,43c-3.3,0-6,1.3-6,3s2.7,3,6,3h47.9c3.3,0,6-1.3,6-3
		s-2.7-3-6-3H24.4z M36,68l12,12l12-12H36z"/>
	<path id="path3117" inkscape:connector-curvature="0" class="st31" d="M24.7,43c-3.3,0-6,1.3-6,3c0,0.2,0.1,0.3,0.1,0.5
		c0.5-1.4,2.9-2.5,5.8-2.5h47.6c3,0,5.3,1.1,5.8,2.5c0.1-0.2,0.1-0.3,0.1-0.5c0-1.7-2.7-3-6-3H24.7z M36,68l1,1h22l1-1H36z"/>
	<path id="path3894" inkscape:connector-curvature="0" class="st26" d="M18.4,45.5c-0.1,0.2-0.1,0.3-0.1,0.5c0,1.7,2.7,3,6,3H72
		c3.3,0,6-1.3,6-3c0-0.2-0.1-0.3-0.1-0.5C77.4,46.9,75,48,72,48H24.3C21.3,48,18.9,46.9,18.4,45.5z M36,68l12,12l12-12h-1L48,79
		L37,68H36z"/>
</g>
</svg>
